<?xml version="1.0" encoding="UTF-8"?><svg version="1.1" xmlns="http://www.w3.org/2000/svg" xmlns:xlink="http://www.w3.org/1999/xlink" viewBox="0 0 1500 1500" width="1500" height="1500" x="0px" y="0px">
    
    
    <!-- ITEM 0 -->
    <g>
        <defs>
            <clipPath id="clip-path-id-viewbox-item-0">
                <rect x="0.0" y="0.0" width="308.603" height="540.736"/>
            </clipPath>
        </defs>
        <g transform="translate(202.0 234.0) rotate(0.0 316.5 554.0) scale(2.05117902288701 2.049059060243816)">
            <g clip-path="url(#clip-path-id-viewbox-item-0)" transform="translate(-0.0 -0.0)">
                
<g>
	<g>
		<path style="fill:#050c04;" d="M308.603,540.736H0V215.704C0,96.574,96.574,0,215.704,0h92.9V540.736z"/>
	</g>
</g>

            </g>
        </g>
    </g>
    
    <!-- ITEM 1 -->
    <g>
        <defs>
            <clipPath id="clip-path-id-viewbox-item-1">
                <rect x="0.0" y="0.0" width="245.604" height="461.473"/>
            </clipPath>
        </defs>
        <g transform="translate(688.0 172.0) rotate(0.0 313.5 589.5) scale(2.5528900180778815 2.5548623646453854)">
            <g clip-path="url(#clip-path-id-viewbox-item-1)" transform="translate(-0.0 -0.0)">
                
<g>
	<g>
		<path style="fill:#115693;" d="M97.761,0.003V0h-0.449h-1.016H0v461.115l245.604,0.358V148.292    C245.604,66.543,179.454,0.245,97.761,0.003z"/>
	</g>
</g>

            </g>
        </g>
    </g>
    
    <!-- ITEM 2 -->
    <g>
        <defs>
            <clipPath id="clip-path-id-viewbox-item-2">
                <rect x="0.0" y="0.0" width="8.804" height="46.528"/>
            </clipPath>
        </defs>
        <g transform="translate(453.0 498.0) rotate(0.0 11.5 60.5) scale(2.6124488868696045 2.6005845942228336)">
            <g clip-path="url(#clip-path-id-viewbox-item-2)" transform="translate(-0.0 -0.0)">
                
<g>
	<rect style="fill:#115693;" width="8.804" height="46.528"/>
</g>

            </g>
        </g>
    </g>
    
    <!-- ITEM 3 -->
    <g>
        <defs>
            <clipPath id="clip-path-id-viewbox-item-3">
                <rect x="0.0" y="0.0" width="16.571" height="63.099"/>
            </clipPath>
        </defs>
        <g transform="translate(395.0 473.0) rotate(20.90575261479303 19.0 71.5) scale(2.29316275420916 2.266279972741248)">
            <g clip-path="url(#clip-path-id-viewbox-item-3)" transform="translate(-0.0 -0.0)">
                
<g>
	<rect x="0" style="fill:#EE442B;" width="16.571" height="63.099"/>
</g>

            </g>
        </g>
    </g>
    
    <!-- ITEM 4 -->
    <g>
        <defs>
            <clipPath id="clip-path-id-viewbox-item-4">
                <rect x="0.0" y="0.0" width="25.3" height="89.7"/>
            </clipPath>
        </defs>
        <g transform="translate(494.0 429.0) rotate(0.0 27.0 94.5) scale(2.1343873517786562 2.1070234113712374)">
            <g clip-path="url(#clip-path-id-viewbox-item-4)" transform="translate(-0.0 -0.0)">
                

<g>
	<g>
		<rect x="0.1" y="0" width="25.2" height="89.7" style="fill:#EE442B;"/>
	</g>
	<g>
		<rect y="17.2" width="25.2" height="9.3" style="fill:#FFEEA6;"/>
	</g>
	<g>
		<rect x="0" y="70" width="25.2" height="9.3" style="fill:#FFEEA6;"/>
	</g>
</g>

            </g>
        </g>
    </g>
    
    <!-- ITEM 5 -->
    <g>
        <defs>
            <clipPath id="clip-path-id-viewbox-item-5">
                <rect x="0.0" y="0.0" width="8.773" height="80.467"/>
            </clipPath>
        </defs>
        <g transform="translate(474.0 439.0) rotate(0.0 10.0 90.5) scale(2.2797218739313805 2.2493693066723006)">
            <g clip-path="url(#clip-path-id-viewbox-item-5)" transform="translate(-0.0 -0.0)">
                
<g>
	<g>
		<rect x="0" style="fill:#1E9E9C;" width="8.764" height="80.467"/>
	</g>
	<g>
		<rect x="0" y="21.551" style="fill:#EE442B;" width="8.764" height="2.868"/>
	</g>
	<g>
		<rect x="0" y="52.383" style="fill:#EE442B;" width="8.773" height="2.868"/>
	</g>
</g>

            </g>
        </g>
    </g>
    
    <!-- ITEM 6 -->
    <g>
        <defs>
            <clipPath id="clip-path-id-viewbox-item-6">
                <rect x="0.0" y="0.0" width="95.84" height="222.511"/>
            </clipPath>
        </defs>
        <g transform="translate(638.0 569.0) rotate(0.0 104.5 242.5) scale(2.1807178631051753 2.1796675220550896)">
            <g clip-path="url(#clip-path-id-viewbox-item-6)" transform="translate(-0.0 -0.0)">
                
<g>
	<g>
		<path style="fill:#050C04;" d="M3.581,222.579c-1.933,0-3.5-1.567-3.5-3.5v-76.483c0-1.933,1.567-3.5,3.5-3.5h63.55    c5.729,0,10.389-4.661,10.389-10.39c0-4.469-3.636-8.104-8.105-8.104c-13.63,0-24.719-11.089-24.719-24.72v-1.487    c0-11.726,9.54-21.266,21.267-21.266c12.523,0,22.711-10.188,22.711-22.712V34.854c0-15.276-12.428-27.704-27.704-27.704    c-1.933,0-3.513-1.567-3.513-3.5s1.554-3.5,3.487-3.5h0.026c19.136,0,34.704,15.568,34.704,34.704v15.563    c0,16.383-13.329,29.712-29.711,29.712c-7.867,0-14.267,6.399-14.267,14.266v1.487c0,9.771,7.949,17.72,17.719,17.72    c8.329,0,15.105,6.775,15.105,15.104c0,9.589-7.801,17.39-17.389,17.39H7.081v72.983C7.081,221.012,5.514,222.579,3.581,222.579z"/>
	</g>
</g>

            </g>
        </g>
    </g>
    
    <!-- ITEM 7 -->
    <g>
        <defs>
            <clipPath id="clip-path-id-viewbox-item-7">
                <rect x="0.0" y="0.0" width="103.97" height="136.236"/>
            </clipPath>
        </defs>
        <g transform="translate(547.0 323.0) rotate(0.0 112.5 148.5) scale(2.1640857939790323 2.1800405179247777)">
            <g clip-path="url(#clip-path-id-viewbox-item-7)" transform="translate(-0.0 -0.0)">
                
<g>
	<g>
		<path style="fill:#108E82;" d="M103.97,136.236H0V12.737C0,5.703,5.703,0,12.737,0h78.495c7.035,0,12.737,5.703,12.737,12.737    V136.236z"/>
	</g>
	<g>
		<circle style="fill:#050C04;" cx="51.985" cy="53.459" r="36.569"/>
	</g>
	<g>
		<circle style="fill:#EE442B;" cx="78.686" cy="112.526" r="11.999"/>
	</g>
	<g>
		
			<rect x="-3.201" y="33.555" transform="matrix(0.7032 -0.711 0.711 0.7032 -15.4248 42.6384)" style="fill:#108E82;" width="93.124" height="12.482"/>
	</g>
	<g>
		
			<rect x="2.803" y="58.531" transform="matrix(0.7071 -0.7071 0.7071 0.7071 -29.0404 59.4342)" style="fill:#108E82;" width="108.841" height="12.482"/>
	</g>
	<g>
		
			<rect x="54.209" y="-0.193" transform="matrix(0.7109 -0.7032 0.7032 0.7109 -15.1353 55.9141)" style="fill:#108E82;" width="12.482" height="93.124"/>
	</g>
	<g>
		
			<rect x="37" y="17.015" transform="matrix(0.7109 -0.7032 0.7032 0.7109 -32.211 48.7864)" style="fill:#108E82;" width="12.482" height="93.124"/>
	</g>
</g>

            </g>
        </g>
    </g>
    
    <!-- ITEM 8 -->
    <g>
        <defs>
            <clipPath id="clip-path-id-viewbox-item-8">
                <rect x="0.0" y="0.0" width="134.442" height="165.298"/>
            </clipPath>
        </defs>
        <g transform="translate(564.0 921.0) rotate(0.0 149.5 184.0) scale(2.224007378646554 2.2262822296700504)">
            <g clip-path="url(#clip-path-id-viewbox-item-8)" transform="translate(-0.0 -0.0)">
                
<g>
	<g>
		<path style="fill:#108E82;" d="M134.442,9.222L133.082,0L75.435,8.499c-4.53,0.668-8.359,3.705-10.04,7.965L25.49,117.608    l8.666,3.433l38.58-97.377c1.392-3.513,4.552-6.016,8.29-6.567L134.442,9.222z"/>
	</g>
	<g>
		<path style="fill:#EE442B;" d="M70.576,165.298H38.732c-6.5,0-12.103-4.572-13.406-10.939L7.011,64.914h92.736l-15.694,89.075    C82.901,160.529,77.218,165.298,70.576,165.298z"/>
	</g>
	<g>
		<path style="fill:#FFEEA6;" d="M106.758,70.65H0v-2.071C0,61.626,5.636,55.99,12.588,55.99H94.17    c6.952,0,12.588,5.636,12.588,12.588V70.65z"/>
	</g>
	<g>
		<path style="fill:#FFEEA6;" d="M88.992,61.089H17.766v-9.242c0-3.696,2.996-6.692,6.692-6.692H82.3    c3.696,0,6.692,2.996,6.692,6.692V61.089z"/>
	</g>
</g>

            </g>
        </g>
    </g>
    
    <!-- ITEM 9 -->
    <g>
        <defs>
            <clipPath id="clip-path-id-viewbox-item-9">
                <rect x="0.0" y="0.0" width="210.808" height="29.637"/>
            </clipPath>
        </defs>
        <g transform="translate(307.0 618.0) rotate(0.0 246.0 35.0) scale(2.3338772722097834 2.361912474272025)">
            <g clip-path="url(#clip-path-id-viewbox-item-9)" transform="translate(-0.0 -0.0)">
                
<g>
	<rect style="fill:#FFEEA6;" width="210.808" height="29.637"/>
</g>

            </g>
        </g>
    </g>
    
    <!-- ITEM 10 -->
    <g>
        <defs>
            <clipPath id="clip-path-id-viewbox-item-10">
                <rect x="0.0" y="0.0" width="257.209" height="223.094"/>
            </clipPath>
        </defs>
        <g transform="translate(312.0 799.0) rotate(0.0 281.0 244.0) scale(2.1849935266650857 2.1874187562193517)">
            <g clip-path="url(#clip-path-id-viewbox-item-10)" transform="translate(-0.0 -0.0)">
                
<g>
	<g>
		<g>
			
				<rect x="70.818" y="71.549" transform="matrix(0.9935 -0.1138 0.1138 0.9935 -7.7861 10.5487)" style="fill:#FFC49C;" width="35.397" height="3.867"/>
		</g>
	</g>
	<g>
		<g>
			
				<rect x="66.242" y="50.4" transform="matrix(0.9006 -0.4346 0.4346 0.9006 -15.1479 38.4179)" style="fill:#EE442B;" width="20.388" height="3.867"/>
		</g>
	</g>
	<g>
		<g>
			
				<rect x="66.619" y="94.302" transform="matrix(0.9272 0.3745 -0.3745 0.9272 41.6242 -21.7613)" style="fill:#EE442B;" width="20.388" height="3.867"/>
		</g>
	</g>
	<g>
		<g>
			
				<rect x="47.878" y="23.536" transform="matrix(0.648 -0.7616 0.7616 0.648 3.6844 58.9101)" style="fill:#FFC49C;" width="35.397" height="3.867"/>
		</g>
	</g>
	<g>
		<g>
			<path style="fill:#FFEEA6;" d="M78.07,206.96H53.531v-7.17c0-2.728,2.212-4.94,4.94-4.94H73.13c2.728,0,4.94,2.212,4.94,4.94     V206.96z"/>
		</g>
		<g>
			<path style="fill:#FFEEA6;" d="M106.034,206.96H81.496v-7.17c0-2.728,2.212-4.94,4.94-4.94h14.659c2.728,0,4.94,2.212,4.94,4.94     V206.96z"/>
		</g>
		<g>
			<path style="fill:#FFEEA6;" d="M134.954,206.96h-24.538v-7.17c0-2.728,2.212-4.94,4.94-4.94h14.659c2.728,0,4.94,2.212,4.94,4.94     V206.96z"/>
		</g>
		<g>
			<path style="fill:#FFEEA6;" d="M164.592,206.96h-24.538v-7.17c0-2.728,2.212-4.94,4.94-4.94h14.659c2.728,0,4.94,2.212,4.94,4.94     V206.96z"/>
		</g>
		<g>
			<path style="fill:#FFEEA6;" d="M193.99,206.96h-24.538v-7.17c0-2.728,2.212-4.94,4.94-4.94h14.659c2.728,0,4.94,2.212,4.94,4.94     V206.96z"/>
		</g>
		<g>
			<path style="fill:#FFEEA6;" d="M225.301,206.96h-24.538v-7.17c0-2.728,2.212-4.94,4.94-4.94h14.659c2.728,0,4.94,2.212,4.94,4.94     V206.96z"/>
		</g>
		<g>
			<path style="fill:#108E82;" d="M53.651,219.544l-20.544,3.215L0.127,12.006C-0.761,6.333,3.118,1.014,8.791,0.127l0,0     c5.673-0.888,10.992,2.991,11.879,8.665L53.651,219.544z"/>
		</g>
		<g>
			
				<rect x="134.954" y="100.839" transform="matrix(-1.836970e-16 1 -1 -1.836970e-16 358.048 67.3451)" style="fill:#108E82;" width="20.794" height="223.714"/>
		</g>
	</g>
</g>

            </g>
        </g>
    </g>
    
    <!-- ITEM 11 -->
    <g>
        <defs>
            <clipPath id="clip-path-id-viewbox-item-11">
                <rect x="0.0" y="0.0" width="56.353" height="42.265"/>
            </clipPath>
        </defs>
        <g transform="translate(916.0 920.0) rotate(-169.44878518477324 65.0 49.0) scale(2.306886944794421 2.318703418904531)">
            <g clip-path="url(#clip-path-id-viewbox-item-11)" transform="translate(-0.0 -0.0)">
                
<g>
	<g>
		<path style="fill:#FFEEA6;" d="M30.692,42.265L0,1.656L56.353,0L30.692,42.265z M16.809,9.716L29.92,27.062L40.881,9.008    L16.809,9.716z"/>
	</g>
</g>

            </g>
        </g>
    </g>
    
    <!-- ITEM 12 -->
    <g>
        <defs>
            <clipPath id="clip-path-id-viewbox-item-12">
                <rect x="0.0" y="0.0" width="345.61" height="29.637"/>
            </clipPath>
        </defs>
        <g transform="translate(201.0 1285.0) rotate(0.0 379.5 32.5) scale(2.196117010503168 2.193204440395452)">
            <g clip-path="url(#clip-path-id-viewbox-item-12)" transform="translate(-0.0 -0.0)">
                
<g>
	<rect style="fill:#FFEEA6;" width="345.61" height="29.637"/>
</g>

            </g>
        </g>
    </g>
    
    <!-- ITEM 13 -->
    <g>
        <defs>
            <clipPath id="clip-path-id-viewbox-item-13">
                <rect x="0.0" y="0.0" width="288.102" height="410.429"/>
            </clipPath>
        </defs>
        <g transform="translate(688.0 456.0) rotate(0.0 314.5 447.0) scale(2.1832545417942257 2.1782086548465145)">
            <g clip-path="url(#clip-path-id-viewbox-item-13)" transform="translate(-0.0 -0.0)">
                
<g>
	<g>
		<path style="fill:#FFC1A3;" d="M246.703,39.288C227.557,4.213,183.602-8.7,148.527,10.446c-1.656,0.904-3.263,1.864-4.819,2.875    l-9.52,5.737c-34.147,18.639-46.006,61.042-27.367,95.189l13.643,24.993l15.187-8.29l4.934,9.04l3.979-2.172l4.076,7.589    c6.561,12.216,19.966,13.547,32.214,7.045l11.692-6.207l20.116,36.739l49.017-26.756l-20.981-38.334    C257.5,95.878,260.829,65.168,246.703,39.288z"/>
	</g>
	<g>
		<circle style="fill:#0F0F0E;" cx="133.768" cy="90.515" r="6.734"/>
	</g>
	<g>
		<path style="fill:#EE442B;" d="M288.091,143.182h-11.198c-49.691,0-89.973,40.282-89.973,89.973v177.274h101.171V143.182z"/>
	</g>
	<g>
		<g>
			<polygon style="fill:#FFC49C;" points="215.8,335.26 288.102,362.826 288.091,243.877 215.8,243.877    "/>
		</g>
	</g>
	<g>
		<rect x="211.02" y="239.416" style="fill:#108E82;" width="77.071" height="38.242"/>
	</g>
	<g>
		<g>
			<polygon style="fill:#FFC49C;" points="288.102,362.826 255.715,298.93 97.012,297.257 122.506,345.059    "/>
		</g>
	</g>
	<g>
		<path style="fill:#050C04;" d="M164.626,109.899L164.626,109.899l0.209,2.629c0.4,5.034-2.521,9.743-7.209,11.622l-6.195,2.483    l-15.781,4.318l-2.526,13.027l28.801-15.972C168.56,124.326,169.898,115.354,164.626,109.899z"/>
	</g>
	<g>
		<g>
			<path style="fill:#050C04;" d="M89.323,59.998c0,0,37.21,12.391,82.478-29.459c0,0-2.444,80.045,58.425,61.524l10.989,26.95     l24.317-13.818l-11.765-48.042c-2.528-17.325-27.709-80.811-107.969-47.769c-17.359,7.147-32.902,18.072-43.914,33.275     L89.323,59.998z"/>
		</g>
	</g>
	<g>
		<path style="fill:#050C04;" d="M194.369,62.622l-6.24,26.789c-3.041,13.055-10.69,24.574-21.542,32.442l-22.023,15.966    c0,0,1.154,20.252,14.359,33.467c0,0,80.183-27.703,65.171-91.123L194.369,62.622z"/>
	</g>
	<g>
		<path style="fill:#FFC49C;" d="M23.715,315.741L2.901,336.742c-3.899,3.942-3.863,10.298,0.078,14.196l0,0    c3.942,3.899,10.298,3.863,14.196-0.078l22.114-22.293L23.715,315.741z"/>
	</g>
	<g>
		<path style="fill:#FFC49C;" d="M53.91,313.271l-20.814,21.002c-3.899,3.942-3.863,10.298,0.078,14.196l0,0    c3.942,3.899,10.298,3.863,14.196-0.078l22.114-22.293L53.91,313.271z"/>
	</g>
	<g>
		<path style="fill:#FFC49C;" d="M75.66,313.351l-20.814,21.002c-3.899,3.942-3.863,10.298,0.078,14.196h0    c3.942,3.899,10.298,3.863,14.196-0.078l22.114-22.293L75.66,313.351z"/>
	</g>
	<g>
		<path style="fill:#FFC49C;" d="M96.693,317.653l-20.814,21.002c-3.899,3.942-3.863,10.298,0.078,14.196h0    c3.942,3.899,10.298,3.863,14.196-0.078l22.114-22.293L96.693,317.653z"/>
	</g>
	<g>
		<path style="fill:#FFC49C;" d="M111.83,297.855c0,0-54.734-20.794-92.378,21.989l16.253,13.026l57.96,15.536l6.896-0.225    c5.167-0.168,10.31-0.768,15.377-1.793l6.568-1.328L111.83,297.855z"/>
	</g>
	<g>
		<polygon style="fill:#050C04;" points="135.333,346.471 121.47,345.269 121.47,297.45 135.333,297.45   "/>
	</g>
	<g>
		<ellipse style="fill:#050C04;" cx="128.441" cy="321.181" rx="9.53" ry="19.918"/>
	</g>
	<g>
		<path d="M100.138,110.363c-1.176,0-2.325-0.593-2.986-1.669c-1.012-1.647-0.497-3.803,1.15-4.814l12.932-7.944    c1.647-1.011,3.802-0.497,4.814,1.15c1.012,1.647,0.497,3.803-1.15,4.814l-12.932,7.944    C101.395,110.195,100.762,110.363,100.138,110.363z"/>
	</g>
	<g>
		<path d="M150.795,73.244c-0.891,0-1.783-0.338-2.465-1.016c-1.372-1.361-1.381-3.577-0.019-4.949    c1.401-1.412,2.842-2.932,4.368-4.541c8.523-8.987,18.183-19.174,30.033-20.73l13.816-1.815c1.918-0.247,3.674,1.098,3.926,3.014    c0.252,1.917-1.098,3.675-3.014,3.926l-13.816,1.815c-9.391,1.234-18.144,10.465-25.866,18.607    c-1.554,1.639-3.021,3.187-4.478,4.654C152.595,72.898,151.695,73.244,150.795,73.244z"/>
	</g>
	<g>
		<g>
			<path style="fill:#115693;" d="M124.115,122.718L99.138,82.535l43.431-26.996l24.977,40.184L124.115,122.718z M114.265,86.065     l13.381,21.526l24.774-15.399l-13.381-21.526L114.265,86.065z"/>
		</g>
	</g>
	<g>
		<path style="fill:#FFC1A3;" d="M186.181,47.427c-0.221,0.117-0.437,0.24-0.65,0.365l15.675,29.649    c0.224-0.106,0.447-0.215,0.668-0.332c8.196-4.333,11.328-14.491,6.995-22.688S194.378,43.094,186.181,47.427z"/>
	</g>
</g>
<g>
	<rect x="208.646" y="217.445" style="fill:#050C04;" width="7" height="80.986"/>
</g>

            </g>
        </g>
    </g>
    
    <!-- ITEM 14 -->
    <g>
        <defs>
            <clipPath id="clip-path-id-crop-item-14">
                
          <rect transform="scale(0.38589591836734694 0.3888888888888889)" x="0.0" y="0.0" width="361.0" height="37.0"/>
        
            </clipPath>
            
            <clipPath id="clip-path-id-viewbox-item-14">
                <rect x="0.0" y="0.0" width="189.089" height="14.0"/>
            </clipPath>
        </defs>
        <g clip-path="url(#clip-path-id-crop-item-14)" transform="translate(847.0 208.0) rotate(-45.653130817963195 245.0 18.0) scale(2.5913723167397364 2.5714285714285716)">
            <g clip-path="url(#clip-path-id-viewbox-item-14)" transform="translate(-0.0 -0.0)">
                
<g>
	<rect x="0" y="0" style="fill:#EE442B;" width="189.089" height="14"/>
</g>

            </g>
        </g>
    </g>
    
    <!-- ITEM 15 -->
    <g>
        <defs>
            <clipPath id="clip-path-id-viewbox-item-15">
                <rect x="0.0" y="0.0" width="11.263" height="11.263"/>
            </clipPath>
        </defs>
        <g transform="translate(236.0 1196.0) rotate(0.0 54.0 54.0) scale(9.588919470833703 9.588919470833703)">
            <g clip-path="url(#clip-path-id-viewbox-item-15)" transform="translate(-0.0 -0.0)">
                
<g>
	<g>
		<circle style="fill:#ee442b;" cx="5.632" cy="5.632" r="5.632"/>
	</g>
</g>

            </g>
        </g>
    </g>
    
    <!-- ITEM 16 -->
    <g>
        <defs>
            <clipPath id="clip-path-id-viewbox-item-16">
                <rect x="0.0" y="0.0" width="56.353" height="42.265"/>
            </clipPath>
        </defs>
        <g transform="translate(816.0 203.0) rotate(160.2800689821765 65.0 49.0) scale(2.306886944794421 2.318703418904531)">
            <g clip-path="url(#clip-path-id-viewbox-item-16)" transform="translate(-0.0 -0.0)">
                
<g>
	<g>
		<path style="fill:#108e82;" d="M30.692,42.265L0,1.656L56.353,0L30.692,42.265z M16.809,9.716L29.92,27.062L40.881,9.008    L16.809,9.716z"/>
	</g>
</g>

            </g>
        </g>
    </g>
    
</svg>