<?xml version="1.0" encoding="UTF-8"?><svg version="1.1" xmlns="http://www.w3.org/2000/svg" xmlns:xlink="http://www.w3.org/1999/xlink" viewBox="0 0 1500 1500" width="1500" height="1500" x="0px" y="0px">
    
    
    <!-- ITEM 0 -->
    <g>
        <defs>
            <clipPath id="clip-path-id-viewbox-item-0">
                <rect x="0.0" y="0.0" width="35.0" height="35.0"/>
            </clipPath>
        </defs>
        <g transform="translate(1.0 1.0) rotate(0.0 749.5 749.5) scale(42.82857142857143 42.82857142857143)">
            <g clip-path="url(#clip-path-id-viewbox-item-0)" transform="translate(-0.0 -0.0)">
                <title>Asset 138</title><g id="Layer_2-i0" data-name="Layer 2"><g id="Layer_1-2-i0" data-name="Layer 1"><rect width="35" height="35" fill="#fff"/></g></g>
            </g>
        </g>
    </g>
    
    <!-- ITEM 1 -->
    <g>
        <defs>
            <clipPath id="clip-path-id-viewbox-item-1">
                <rect x="0.0" y="0.0" width="697.36" height="591.828"/>
            </clipPath>
        </defs>
        <g transform="translate(104.0 139.0) rotate(0.0 647.0 550.0) scale(1.855569576689228 1.858648120737782)">
            <g clip-path="url(#clip-path-id-viewbox-item-1)" transform="translate(-0.0 -0.0)">
                
<g>
	<g opacity="0.3">
		<path fill="#C4ECFE" d="M694.333,2.22v587.187H2.22V2.22L694.333,2.22 M696.553,0H0v591.727h696.553V0L696.553,0z"/>
		<g>
			<rect y="419.405" fill="#C4ECFE" width="696.553" height="2.119"/>
		</g>
		<g>
			<rect y="334.757" fill="#C4ECFE" width="696.553" height="2.119"/>
		</g>
		<g>
			<rect y="419.405" fill="#C4ECFE" width="696.553" height="2.119"/>
		</g>
		<g>
			<rect y="504.153" fill="#C4ECFE" width="696.553" height="2.119"/>
		</g>
		<g>
			<rect y="250.008" fill="#C4ECFE" width="696.553" height="2.119"/>
		</g>
		<g>
			<rect y="165.26" fill="#C4ECFE" width="696.553" height="2.119"/>
		</g>
		<g>
			<rect y="80.511" fill="#C4ECFE" width="696.553" height="2.119"/>
		</g>
	</g>
	<circle fill="#BFD9FF" cx="138.927" cy="308.122" r="3.027"/>
	<circle fill="#BFD9FF" cx="441.399" cy="545.62" r="3.027"/>
	<circle fill="#BFD9FF" cx="599.092" cy="17.454" r="3.027"/>
	<circle fill="#BFD9FF" cx="636.825" cy="203.397" r="3.027"/>
	<circle fill="#BFD9FF" cx="49.84" cy="61.039" r="3.027"/>
	<circle fill="#BFD9FF" cx="174.643" cy="46.309" r="2.724"/>
	
		<linearGradient id="SVGID_7_-i1" gradientUnits="userSpaceOnUse" x1="135.4344" y1="184.9885" x2="135.4344" y2="-26.8027" gradientTransform="matrix(-1 0 0 -1 277.6406 512.3824)">
		<stop offset="0" style="stop-color:#FFD8A1"/>
		<stop offset="1" style="stop-color:#FFFFFF"/>
	</linearGradient>
	<path fill="url(#SVGID_7_-i1)" d="M2.724,277.35c0-16.849,24.315-19.371,27.846-2.926c4.944,23.407,11.199,50.547,42.374,61.14   c35.009,11.905,26.131,56.096,90.6,73.751c64.469,17.656,6.558,158.097,118.144,182.411H2.724V277.35z"/>
	
		<linearGradient id="SVGID_18_-i1" gradientUnits="userSpaceOnUse" x1="-465.3551" y1="106.1664" x2="-465.3551" y2="-71.8534" gradientTransform="matrix(-1 0 0 -1 87.7305 512.3824)">
		<stop offset="0" style="stop-color:#C0DDFC"/>
		<stop offset="0.19" style="stop-color:#D3E7FD"/>
		<stop offset="0.49" style="stop-color:#EBF4FE"/>
		<stop offset="0.77" style="stop-color:#FAFCFF"/>
		<stop offset="1" style="stop-color:#FFFFFF"/>
	</linearGradient>
	<path fill="url(#SVGID_18_-i1)" d="M412.342,591.626c80.208,0,77.585-131.966,147.301-149.319   c27.846-6.961,42.98-29.258,55.894-53.573c21.49-40.457,78.292-24.113,78.292,22.6v180.393H412.342V591.626z"/>
	
		<linearGradient id="SVGID_34_-i1" gradientUnits="userSpaceOnUse" x1="-15629.2881" y1="-5.1351" x2="-15629.2881" y2="-76.4526" gradientTransform="matrix(-1 0 0 -1 -15012.3896 512.3824)">
		<stop offset="0" style="stop-color:#FFD8A1"/>
		<stop offset="1" style="stop-color:#FFFFFF"/>
	</linearGradient>
	<path fill="url(#SVGID_34_-i1)" d="M536.439,591.828c43.383,0,39.852-56.903,91.912-51.152c17.858,2.018,28.552-20.481,34.202-30.267   c9.585-16.143,34.807-9.686,34.807,9.08v72.238H536.439V591.828z"/>
</g>

            </g>
        </g>
    </g>
    
    <!-- ITEM 2 -->
    <g>
        <defs>
            <clipPath id="clip-path-id-viewbox-item-2">
                <rect x="0.0" y="0.0" width="337.986" height="253.19"/>
            </clipPath>
        </defs>
        <g transform="translate(438.0 365.0) rotate(0.0 313.5 235.0) scale(1.8551064245264597 1.8563134404992299)">
            <g clip-path="url(#clip-path-id-viewbox-item-2)" transform="translate(-0.0 -0.0)">
                <title>computer_2</title><g id="Layer_2-i2" data-name="Layer 2"><g id="Layer_1-2-i2" data-name="Layer 1"><rect width="337.986" height="204.708" fill="#2b2b2b"/><rect x="26.03" y="27.745" width="151.438" height="7.264" fill="#5e41f4"/><rect x="210.257" y="27.745" width="101.698" height="7.264" fill="#ffa300"/><rect x="26.03" y="48.73" width="78.392" height="7.264" fill="#ff288c"/><rect x="137.212" y="48.73" width="174.744" height="7.264" fill="#3acdff"/><rect x="26.03" y="69.817" width="151.438" height="7.264" fill="#5e41f4"/><rect x="196.536" y="69.817" width="115.319" height="7.264" fill="#ff75c2"/><rect x="26.03" y="90.903" width="151.438" height="7.264" fill="#ffa300"/><rect x="210.257" y="90.903" width="101.698" height="7.264" fill="#ff288c"/><rect x="26.03" y="111.888" width="151.438" height="7.264" fill="#ff288c"/><rect x="210.257" y="111.888" width="101.698" height="7.264" fill="#5e41f4"/><rect x="26.03" y="132.874" width="55.591" height="7.264" fill="#3acdff"/><rect x="114.209" y="132.874" width="197.646" height="7.264" fill="#5e41f4"/><rect x="26.03" y="153.96" width="115.924" height="7.264" fill="#5e41f4"/><rect x="174.643" y="153.96" width="137.212" height="7.264" fill="#ffa300"/><rect x="26.03" y="175.046" width="151.438" height="7.264" fill="#3acdff"/><rect x="210.257" y="175.046" width="101.698" height="7.264" fill="#ff288c"/><path d="M262.439,248.147H241.908l-42.552-57.606a2.5,2.5,0,0,0-2.01-1.015H140.64a2.5,2.5,0,0,0-2.011,1.015L96.078,248.147H75.546a2.5,2.5,0,1,0,0,5H97a2.413,2.413,0,0,0,.307.043H240.679a2.438,2.438,0,0,0,.307-.043h21.453a2.5,2.5,0,0,0,0-5ZM141.9,194.526h54.183l39.608,53.621h-133.4Z" fill="#2b2b2b"/></g></g>
            </g>
        </g>
    </g>
    
    <!-- ITEM 3 -->
    <g>
        <defs>
            <clipPath id="clip-path-id-crop-item-3">
                
          <rect transform="scale(0.5461286836935166 0.5459399656946827)" x="0.0" y="0.0" width="1017.0" height="432.0"/>
        
            </clipPath>
            
            <clipPath id="clip-path-id-viewbox-item-3">
                <rect x="0.0" y="0.0" width="555.959" height="318.283"/>
            </clipPath>
        </defs>
        <g clip-path="url(#clip-path-id-crop-item-3)" transform="translate(242.0 802.0) rotate(0.0 509.0 291.5) scale(1.8310702767650133 1.831703232657729)">
            <g clip-path="url(#clip-path-id-viewbox-item-3)" transform="translate(-0.0 -0.0)">
                <title>table_2</title><g id="Layer_2-i3" data-name="Layer 2"><g id="Layer_1-2-i3" data-name="Layer 1"><rect x="78.46" y="10.067" width="14.804" height="308.216" fill="#f9d5ff"/><rect y="10.067" width="14.804" height="308.216" fill="#f9d5ff"/><rect y="7.18" width="14.804" height="21.244" fill="#2b2b2b"/><rect x="78.46" y="7.18" width="14.804" height="21.244" fill="#2b2b2b"/><rect width="555.959" height="10.067" fill="#2b2b2b"/><rect x="540.711" y="10.067" width="14.804" height="308.216" fill="#f9d5ff"/><rect x="462.25" y="10.067" width="14.804" height="308.216" fill="#f9d5ff"/><rect x="462.25" y="7.18" width="14.804" height="21.244" fill="#2b2b2b"/><rect x="540.711" y="7.18" width="14.804" height="21.244" fill="#2b2b2b"/></g></g>
            </g>
        </g>
    </g>
    
    <!-- ITEM 4 -->
    <g>
        <defs>
            <clipPath id="clip-path-id-viewbox-item-4">
                <rect x="0.0" y="0.0" width="269.842" height="444.332"/>
            </clipPath>
        </defs>
        <g transform="translate(508.0 409.0) rotate(0.0 252.0 413.5) scale(1.8677596519444712 1.861220888884888)">
            <g clip-path="url(#clip-path-id-viewbox-item-4)" transform="translate(-0.0 -0.0)">
                <defs><linearGradient id="linear-gradient-i4" x1="-2081.981" y1="-1630.649" x2="-2081.981" y2="-1896.718" gradientTransform="translate(-2011.359 -1390.641) rotate(180)" gradientUnits="userSpaceOnUse"><stop offset="0" stop-color="#9774ac"/><stop offset="0.4" stop-color="#47a6d3"/><stop offset="0.5" stop-color="#a7a7ae"/><stop offset="0.59" stop-color="#e89ac0"/><stop offset="1" stop-color="#bfe7d1"/></linearGradient><linearGradient id="linear-gradient-2-i4" x1="234.016" y1="-1674.049" x2="234.016" y2="-1512.339" gradientTransform="matrix(1, 0, 0, -1, 0, -1390.641)" gradientUnits="userSpaceOnUse"><stop offset="0" stop-color="#6b9c83"/><stop offset="0.4" stop-color="#a6a6a4"/><stop offset="0.5" stop-color="#9f9fc8"/><stop offset="0.59" stop-color="#9fccec"/><stop offset="1" stop-color="#ffe7b0"/></linearGradient><linearGradient id="linear-gradient-3-i4" x1="192.701" y1="-1630.649" x2="192.701" y2="-1896.718" gradientTransform="matrix(1, 0, 0, -1, 0, -1390.641)" xlink:href="#linear-gradient-i4"/><linearGradient id="linear-gradient-4-i4" x1="207.698" y1="-1660.955" x2="207.698" y2="-2093.845" gradientTransform="matrix(1, 0.017, 0.017, -1, -52.651, -1424.659)" xlink:href="#linear-gradient-i4"/><linearGradient id="linear-gradient-5-i4" x1="210.986" y1="-1639.351" x2="210.986" y2="-1540.211" xlink:href="#linear-gradient-2-i4"/><linearGradient id="linear-gradient-6-i4" x1="3827.35" y1="-1639.351" x2="3827.35" y2="-1540.211" gradientTransform="translate(3872.321 -1390.641) rotate(180)" xlink:href="#linear-gradient-2-i4"/><linearGradient id="linear-gradient-7-i4" x1="206.803" y1="-1669.956" x2="206.803" y2="-1570.824" gradientTransform="matrix(1, 0.017, 0.017, -1, -52.651, -1424.659)" xlink:href="#linear-gradient-2-i4"/></defs><title>man_sit_1</title><g id="Layer_2-i4" data-name="Layer 2"><g id="Layer_1-2-i4" data-name="Layer 1"><path d="M139.077,218.739l-105.129-3.33a30.8,30.8,0,0,0-31.78,29.864h0c-.1,1.312,17.555,176.257,17.555,176.257L62.7,420.521l3.027-133.479L90.606,299.2Z" fill="url(#linear-gradient-i4)"/><path d="M6,444.332H62.8v-23.71l-42.979,1.009L3.277,437.875A3.9,3.9,0,0,0,2.168,440.6h0A3.812,3.812,0,0,0,6,444.332Z" fill="#2b2b2b"/><path d="M7.111,192.1a25.761,25.761,0,0,0,29.36,21.489c.605-.1,1.109-.2,1.614-.3l2.926-.707a25.423,25.423,0,0,0-6.155-50.243l-3.026.1A25.755,25.755,0,0,0,6.809,188.774c0,1.211.2,2.22.3,3.33Z" fill="#ea7068"/><path d="M269.529,183.528a25.716,25.716,0,0,1-29.258,21.49c-.6-.1-1.11-.2-1.715-.3l-2.926-.706a25.386,25.386,0,0,1,6.154-50.143l3.027.1A25.755,25.755,0,0,1,269.832,180.3a31.882,31.882,0,0,1-.3,3.229Z" fill="#ea7068"/><path d="M256.716,198.964l-3.127,39.953-42.476-2.724,5.448-62.351h16.95a23.36,23.36,0,0,1,23.407,23.407A4.714,4.714,0,0,0,256.716,198.964Z" fill="url(#linear-gradient-2-i4)"/><path d="M124.246,218.739l105.129-3.33a30.8,30.8,0,0,1,31.78,29.864h0c.1,1.312-17.555,176.257-17.555,176.257l-42.979-1.009-3.027-133.479-46.5,13.065Z" fill="url(#linear-gradient-3-i4)"/><path d="M70.572,238.11c-9.887,27.039,3.228,64.469,33.9,63.662,23.609-.605,25.324.3,35.211.1,31.579-.807,52.464-33.395,42.677-63.46Z" fill="url(#linear-gradient-4-i4)"/><path d="M238.858,207.035l14.63,31.781a27.024,27.024,0,0,1-13.318,35.817c-.2.1-.4.1-.6.2h0a26.978,26.978,0,0,1-31.579-7.869l-41.971-52.06,8.677-84.547,19.875,17.253A177.122,177.122,0,0,1,238.858,207.035Z" fill="url(#linear-gradient-5-i4)"/><path d="M17.1,207.035,2.47,238.816a27.023,27.023,0,0,0,13.318,35.817c.2.1.4.1.605.2h0a26.979,26.979,0,0,0,31.579-7.869l41.971-52.06-8.677-84.547L61.492,147.711A174.744,174.744,0,0,0,17.1,207.035Z" fill="url(#linear-gradient-6-i4)"/><circle cx="86.315" cy="56.378" r="15.235" fill="#ea7068"/><circle cx="166.62" cy="57.716" r="15.235" fill="#ea7068"/><path d="M103.361,125.515l1.917-61.543,43.081-.707,3.531,61.544A23.34,23.34,0,0,1,130.1,149.527c-.505,0-.908.1-1.413.1h-1.816a23.359,23.359,0,0,1-23.407-23.406A1.5,1.5,0,0,1,103.361,125.515Z" fill="#ea7068"/><path id="_Path_-i4" data-name=" Path " d="M126.768,106.548h0a37.362,37.362,0,0,1-36.321-33.8L87.522,39.758A40.546,40.546,0,0,1,128.786.007h0a40.546,40.546,0,0,1,39.751,41.264L164.3,74.162A37.015,37.015,0,0,1,126.768,106.548Z" fill="#fec73a"/><path d="M182.46,238.413a49.528,49.528,0,0,1-2.623-15.739c0-9.081,21.793-22.9,21.187-50.345-.5-21.086-23.407-52.161-60.131-51.455l-29.662,1.413c-32.285.6-57.71,28.956-59.021,51.353h-.1c0,.707.1,1.211.1,1.917v.606h0c2.017,37.329,28.148,35.513,18.463,62.048Z" fill="url(#linear-gradient-7-i4)"/><path d="M247.232,226.306a1.1,1.1,0,0,1-1.009-.707c-9.584-25.525-27.341-50.042-27.543-50.344a1.08,1.08,0,1,1,1.715-1.312c.1.2,18.06,25.021,27.846,50.849a1.091,1.091,0,0,1-.706,1.413A.371.371,0,0,1,247.232,226.306Z" fill="#2b2b2b"/><path d="M181.754,235.689a1.1,1.1,0,0,1-.908-.4l-10.8-13.318a1.072,1.072,0,1,1,1.614-1.412l10.8,13.318a1.1,1.1,0,0,1-.1,1.513A.609.609,0,0,1,181.754,235.689Z" fill="#2b2b2b"/><path d="M70.572,239.22h-.1a1.1,1.1,0,0,1-.908-1.211l4.843-31.781a1.07,1.07,0,1,1,2.118.3l-4.842,31.781A1.1,1.1,0,0,1,70.572,239.22Z" fill="#2b2b2b"/><path d="M257.321,444.332h-56.8v-23.71l42.879,1.009,16.546,16.244a3.9,3.9,0,0,1,1.109,2.724h0a3.725,3.725,0,0,1-3.733,3.733Z" fill="#2b2b2b"/></g></g>
            </g>
        </g>
    </g>
    
    <!-- ITEM 5 -->
    <g>
        <defs>
            <clipPath id="clip-path-id-viewbox-item-5">
                <rect x="0.0" y="0.0" width="155.171" height="64.268"/>
            </clipPath>
        </defs>
        <g transform="translate(1050.0 598.0) rotate(0.0 142.0 59.0) scale(1.8302388977321795 1.8360614925001555)">
            <g clip-path="url(#clip-path-id-viewbox-item-5)" transform="translate(-0.0 -0.0)">
                <title>var_bubble</title><g id="Layer_2-i5" data-name="Layer 2"><g id="Layer_1-2-i5" data-name="Layer 1"><path d="M129.141,0H76.072a26.114,26.114,0,0,0-26.03,26.131v3.43H0v7.264H50.042v1.413a26.029,26.029,0,0,0,26.03,26.03h53.069a26.029,26.029,0,0,0,26.03-26.03V26.03A26.029,26.029,0,0,0,129.141,0Z" fill="#f9d5ff"/><path d="M85.858,41.971H81.016L73.348,22.9h4.54l5.65,14.73,5.65-14.73h4.338Z" fill="#ffa300"/><path d="M115.218,41.971H110.98v-2.22a7.131,7.131,0,0,1-5.952,2.724c-5.348,0-9.484-4.136-9.484-9.988S99.68,22.5,105.028,22.5a7.131,7.131,0,0,1,5.952,2.724V23h4.137V41.971ZM99.882,32.487c0,3.329,2.22,6.154,5.751,6.154,3.43,0,5.751-2.623,5.751-6.154s-2.321-6.154-5.751-6.154c-3.632.1-5.751,2.724-5.751,6.154Z" fill="#ffa300"/><path d="M134.488,23l-1.009,4.137a8.312,8.312,0,0,0-3.128-.707c-2.623,0-4.54,1.917-4.54,5.146V41.971h-4.136V22.9h4.136v2.119A6.446,6.446,0,0,1,131.36,22.4,11.465,11.465,0,0,1,134.488,23Z" fill="#ffa300"/></g></g>
            </g>
        </g>
    </g>
    
    <!-- ITEM 6 -->
    <g>
        <defs>
            <clipPath id="clip-path-id-viewbox-item-6">
                <rect x="0.0" y="0.0" width="183.925" height="114.31"/>
            </clipPath>
        </defs>
        <g transform="translate(118.0 291.0) rotate(0.0 169.5 105.0) scale(1.8431425852929182 1.837109614206981)">
            <g clip-path="url(#clip-path-id-viewbox-item-6)" transform="translate(-0.0 -0.0)">
                <title>if_bubble</title><g id="Layer_2-i6" data-name="Layer 2"><g id="Layer_1-2-i6" data-name="Layer 1"><path d="M141.046,82.327c10.8-3.834,25.122-6.053,42.879-6.759l-.3-7.265c-22.8.908-38.036,4.137-48.024,8.273-9.4-9.5-22.107-20.383-32.294-28.76a25.975,25.975,0,0,0,1.825-9.578V26.03A26.029,26.029,0,0,0,79.1,0H26.03A26.158,26.158,0,0,0,0,26.03V38.238a26.029,26.029,0,0,0,26.03,26.03H79.1A26,26,0,0,0,99.651,54.2c9.26,7.646,20.384,17.2,28.985,25.7-6.759,3.935-9.988,8.172-11.4,11.4-2.523,5.549-1.615,11.6,2.724,16.747a16.157,16.157,0,0,0,12.51,6.256,12.51,12.51,0,0,0,2.724-.3,15.659,15.659,0,0,0,12.107-10.19c1.312-3.834,2.321-11.6-5.851-20.985C141.349,82.731,141.147,82.428,141.046,82.327Zm-.6,18.867a8.314,8.314,0,0,1-6.457,5.448c-1.817.4-5.247.4-8.274-3.329-2.522-2.926-3.127-6.054-1.715-9.081,1.413-3.228,4.843-6.255,9.989-8.878.706.807,1.412,1.513,2.017,2.119C140.34,92.315,141.853,97.259,140.441,101.194Z" fill="#f9d5ff"/><path d="M68.606,29.258H61.544V45.805H57V29.258H52.867V25.122H57V21.591c0-4.137,2.118-7.466,6.961-7.466a11.393,11.393,0,0,1,5.751,1.513L68.1,19.472a7.652,7.652,0,0,0-3.834-1.11c-1.715,0-2.724,1.211-2.724,3.229v3.531h7.062Z" fill="#ff288c"/><path d="M49.235,17.959a3.166,3.166,0,0,1-3.229,3.127,3.1,3.1,0,0,1-3.127-3.228,3.143,3.143,0,0,1,3.127-3.128,3.319,3.319,0,0,1,3.229,3.229ZM48.226,45.7h-4.54V25.122h4.54Z" fill="#ff288c"/></g></g>
            </g>
        </g>
    </g>
    
    <!-- ITEM 7 -->
    <g>
        <defs>
            <clipPath id="clip-path-id-viewbox-item-7">
                <rect x="0.0" y="0.0" width="105.129" height="143.112"/>
            </clipPath>
        </defs>
        <g transform="translate(529.0 125.0) rotate(0.0 95.5 130.0) scale(1.8168155313947625 1.8167589021186203)">
            <g clip-path="url(#clip-path-id-viewbox-item-7)" transform="translate(-0.0 -0.0)">
                <title>programming_bubble</title><g id="Layer_2-i7" data-name="Layer 2"><g id="Layer_1-2-i7" data-name="Layer 1"><path d="M79.1,0H26.031A25.986,25.986,0,0,0,0,26.131V38.238a26.029,26.029,0,0,0,26.03,26.03H49.508l5.382,78.844,7.247-.5L56.789,64.268H79.1a26.029,26.029,0,0,0,26.03-26.03V26.03A26.028,26.028,0,0,0,79.1,0Z" fill="#f9d5ff"/><path d="M43.989,17.454c-2.926,0-4.843,1.614-4.641,4.439l.1,2.321c.1,3.43-1.412,5.952-4.54,7.163,3.128,1.211,4.641,3.733,4.54,7.163l-.1,2.321c-.1,2.825,1.715,4.439,4.641,4.439H45v4.238H43.989c-6.356,0-9.685-3.532-9.383-9.282l.1-2.321c.1-2.825-1.715-4.439-4.742-4.439V29.258c3.027,0,4.843-1.614,4.742-4.439l-.1-2.32c-.3-5.65,3.027-9.282,9.383-9.282H45v4.237Z" fill="#ffa300"/><path d="M61.242,45.4c2.925,0,4.842-1.614,4.641-4.439l-.1-2.321c-.1-3.43,1.412-5.952,4.54-7.163-3.128-1.211-4.641-3.733-4.54-7.163l.1-2.321c.1-2.825-1.716-4.439-4.641-4.439H60.233V13.318h1.009c6.356,0,9.685,3.531,9.382,9.282l-.1,2.32c-.1,2.825,1.715,4.439,4.741,4.439V33.6c-3.026,0-4.842,1.614-4.741,4.439l.1,2.32c.3,5.65-3.026,9.282-9.382,9.282H60.233V45.4Z" fill="#ffa300"/></g></g>
            </g>
        </g>
    </g>
    
    <!-- ITEM 8 -->
    <g>
        <defs>
            <clipPath id="clip-path-id-viewbox-item-8">
                <rect x="0.0" y="0.0" width="150.832" height="64.268"/>
            </clipPath>
        </defs>
        <g transform="translate(176.0 575.0) rotate(0.0 138.5 59.0) scale(1.8364803224779889 1.8360614925001555)">
            <g clip-path="url(#clip-path-id-viewbox-item-8)" transform="translate(-0.0 -0.0)">
                <title>code_bubble</title><g id="Layer_2-i8" data-name="Layer 2"><g id="Layer_1-2-i8" data-name="Layer 1"><path d="M150.832,41.365h-45.9a26.225,26.225,0,0,0,.194-3.127V26.03A26.029,26.029,0,0,0,79.1,0H26.131A26.114,26.114,0,0,0,0,26.03V38.238a26.029,26.029,0,0,0,26.03,26.03H79.1A26.043,26.043,0,0,0,102.968,48.63h47.864Z" fill="#f9d5ff"/><path d="M38.54,42.475,21.994,34.807V30.671L38.54,23v4.54L26.433,32.689,38.54,37.935Z" fill="#5e41f4"/><path d="M46.41,47.52H41.769L58.92,12.309h4.641Z" fill="#5e41f4"/><path d="M66.689,22.9,83.235,30.57v4.137L66.689,42.475v-4.54L78.8,32.79,66.689,27.543Z" fill="#5e41f4"/></g></g>
            </g>
        </g>
    </g>
    
    <!-- ITEM 9 -->
    <g>
        <defs>
            <clipPath id="clip-path-id-viewbox-item-9">
                <rect x="0.0" y="0.0" width="105.129" height="143.503"/>
            </clipPath>
        </defs>
        <g transform="translate(888.0 124.0) rotate(0.0 96.0 131.5) scale(1.8263276545957823 1.8327142986557774)">
            <g clip-path="url(#clip-path-id-viewbox-item-9)" transform="translate(-0.0 -0.0)">
                <title>else_bubble</title><g id="Layer_2-i9" data-name="Layer 2"><g id="Layer_1-2-i9" data-name="Layer 1"><path d="M79.1,0H26.03A26.114,26.114,0,0,0,0,26.131V38.238a26.029,26.029,0,0,0,26.03,26.03H41.04L26.158,142.14l7.135,1.363L48.435,64.268H79.1a26.029,26.029,0,0,0,26.03-26.03V26.03A26.029,26.029,0,0,0,79.1,0Z" fill="#f9d5ff"/><path d="M38.137,32.386a6.659,6.659,0,0,1-.1,1.413H25.223a4.835,4.835,0,0,0,5.145,4.439,9.309,9.309,0,0,0,5.045-1.816l1.917,2.724a10.316,10.316,0,0,1-7.164,2.421c-5.145,0-8.878-3.632-8.878-9.08s3.531-9.08,8.677-9.08C34.807,23.306,38.137,27.039,38.137,32.386ZM25.324,30.974H34.3c-.4-2.724-2.018-4.339-4.338-4.339a4.506,4.506,0,0,0-4.641,4.339Z" fill="#5e41f4"/><path d="M46.612,41.164H42.778V15.033h3.834Z" fill="#5e41f4"/><path d="M64.369,28.149a11.15,11.15,0,0,0-5.348-1.413c-2.017,0-3.329.807-3.329,2.018s1.211,1.513,2.825,1.816l1.816.3c3.834.5,6.053,2.118,6.053,5.145,0,3.33-2.925,5.65-7.869,5.65a12.473,12.473,0,0,1-7.466-2.22l1.715-2.824a8.194,8.194,0,0,0,5.65,1.715c2.522,0,3.935-.807,3.935-2.119,0-.908-.908-1.614-3.027-1.917l-1.816-.2c-3.834-.5-5.953-2.32-5.953-5.145,0-3.431,2.724-5.549,7.164-5.549a12.837,12.837,0,0,1,6.961,1.816Z" fill="#5e41f4"/><path d="M86.565,32.386a6.659,6.659,0,0,1-.1,1.413H73.651A4.834,4.834,0,0,0,78.8,38.238a9.309,9.309,0,0,0,5.045-1.816l1.917,2.724a10.317,10.317,0,0,1-7.164,2.421c-5.145,0-8.878-3.632-8.878-9.08s3.531-9.08,8.576-9.08C83.134,23.306,86.464,27.039,86.565,32.386ZM73.651,30.974H82.63c-.4-2.724-2.018-4.339-4.338-4.339a4.506,4.506,0,0,0-4.641,4.339Z" fill="#5e41f4"/></g></g>
            </g>
        </g>
    </g>
    
    <!-- ITEM 10 -->
    <g>
        <defs>
            <clipPath id="clip-path-id-viewbox-item-10">
                <rect x="0.0" y="0.0" width="214.664" height="225.905"/>
            </clipPath>
        </defs>
        <g transform="translate(551.0 816.0) rotate(0.0 199.0 209.0) scale(1.8540602988857005 1.8503353179433832)">
            <g clip-path="url(#clip-path-id-viewbox-item-10)" transform="translate(-0.0 -0.0)">
                
<g>
	<g>
		
			<rect x="16.568" y="179.315" transform="matrix(0.0982 -0.9952 0.9952 0.0982 -135.8494 223.34)" fill="#2B2B2B" width="77.487" height="14.63"/>
	</g>
	<g>
		
			<rect x="152.777" y="147.831" transform="matrix(0.9952 -0.0983 0.0983 0.9952 -17.5598 16.6352)" fill="#2B2B2B" width="14.63" height="77.488"/>
	</g>
	<path fill="#FD8D45" d="M199.68,58.416h0.101c8.878,0.706,15.537,8.576,14.831,17.454l-0.706,8.576   c-0.706,8.878-8.576,15.537-17.454,14.831h-0.101c-8.878-0.706-15.537-8.576-14.831-17.454l0.706-8.576   C182.932,64.268,190.701,57.71,199.68,58.416z"/>
	<path fill="#FD8D45" d="M17.269,99.378h-0.101C8.29,99.781,0.622,92.82,0.42,83.841l-0.404-8.576   c-0.404-8.878,6.558-16.546,15.537-16.748h0.101c8.878-0.404,16.546,6.558,16.748,15.537l0.404,8.576   C33.21,91.508,26.248,98.974,17.269,99.378z"/>
	<path fill="#FDCF45" d="M160.636,151.942H54.7c-18.463,0-33.799-14.327-35.11-32.79l-5.549-81.621   C12.729,18.16,27.358,1.413,46.729,0.101C47.536,0,48.344,0,49.151,0h117.034c19.371,0,35.211,15.739,35.211,35.211   c0,0.807,0,1.614-0.101,2.421l-5.549,81.621C194.434,137.616,179.099,151.942,160.636,151.942z"/>
	<g>
		<path fill="#FD8D45" d="M174.357,55.591H40.979c-0.605,0-1.11-0.504-1.11-1.11s0.504-1.11,1.11-1.11h133.479    c0.605,0,1.11,0.504,1.11,1.11S174.962,55.591,174.357,55.591z"/>
	</g>
	<g>
		<path fill="#FD8D45" d="M168.505,95.039H46.83c-0.605,0-1.11-0.504-1.11-1.11s0.504-1.11,1.11-1.11h121.574    c0.605,0,1.11,0.504,1.11,1.11S169.11,95.039,168.505,95.039z"/>
	</g>
</g>

            </g>
        </g>
    </g>
    
    <!-- ITEM 11 -->
    <g>
        <defs>
            <clipPath id="clip-path-id-viewbox-item-11">
                <rect x="0.0" y="0.0" width="298.334" height="3.035"/>
            </clipPath>
        </defs>
        <g transform="translate(210.0 1232.0) rotate(0.0 351.0 3.5) scale(2.3530673674472236 2.3064250411861615)">
            <g clip-path="url(#clip-path-id-viewbox-item-11)" transform="translate(-0.0 -0.0)">
                <title>line_4</title><g id="Layer_2-i11" data-name="Layer 2"><g id="Layer_1-2-i11" data-name="Layer 1"><rect width="298.334" height="3.035" fill="#2b2b2b"/></g></g>
            </g>
        </g>
    </g>
    
    <!-- ITEM 12 -->
    <g>
        <defs>
            <clipPath id="clip-path-id-viewbox-item-12">
                <rect x="0.0" y="0.0" width="285.018" height="226.079"/>
            </clipPath>
        </defs>
        <g transform="translate(866.0 817.0) rotate(0.0 267.5 212.0) scale(1.877074430386853 1.8754506168197842)">
            <g clip-path="url(#clip-path-id-viewbox-item-12)" transform="translate(-0.0 -0.0)">
                
<g>
	
		<linearGradient id="SVGID_7_-i12" gradientUnits="userSpaceOnUse" x1="-2360.1506" y1="-252.52" x2="-2360.1506" y2="-430.5397" gradientTransform="matrix(-1 0 0 -1 -2219.4075 -212.0528)">
		<stop offset="0" style="stop-color:#C0DDFC"/>
		<stop offset="0.19" style="stop-color:#D3E7FD"/>
		<stop offset="0.49" style="stop-color:#EBF4FE"/>
		<stop offset="0.77" style="stop-color:#FAFCFF"/>
		<stop offset="1" style="stop-color:#FFFFFF"/>
	</linearGradient>
	<path fill="url(#SVGID_7_-i12)" d="M0,225.877c80.209,0,77.585-131.966,147.301-149.319c27.846-6.961,42.98-29.258,55.894-53.573   c21.49-40.457,78.292-24.113,78.292,22.6v180.393H0V225.877z"/>
	
		<linearGradient id="SVGID_18_-i12" gradientUnits="userSpaceOnUse" x1="-17524.084" y1="-363.8215" x2="-17524.084" y2="-435.1389" gradientTransform="matrix(-1 0 0 -1 -17319.5273 -212.0528)">
		<stop offset="0" style="stop-color:#FFD8A1"/>
		<stop offset="1" style="stop-color:#FFFFFF"/>
	</linearGradient>
	<path fill="url(#SVGID_18_-i12)" d="M124.096,226.079c43.383,0,39.852-56.903,91.912-51.152c17.858,2.018,28.552-20.481,34.202-30.267   c9.585-16.143,34.807-9.686,34.807,9.08v72.238H124.096V226.079z"/>
</g>

            </g>
        </g>
    </g>
    
    <!-- ITEM 13 -->
    <g>
        <defs>
            <clipPath id="clip-path-id-viewbox-item-13">
                <rect x="0.0" y="0.0" width="187.355" height="116.227"/>
            </clipPath>
        </defs>
        <g transform="translate(1047.0 284.0) rotate(0.0 176.0 109.5) scale(1.8787862613754638 1.8842437643576793)">
            <g clip-path="url(#clip-path-id-viewbox-item-13)" transform="translate(-0.0 -0.0)">
                
<g>
	<path fill="#F9D5FF" d="M108.256,0h53.069c14.427,0,26.03,11.703,26.03,26.03v12.208c0,14.427-11.703,26.03-26.03,26.03h-53.069   c-14.427,0-26.03-11.703-26.03-26.03V26.03C82.125,11.602,93.829,0,108.256,0z"/>
	<path fill="#3ACDFF" d="M139.129,20.985c0,2.321-1.917,4.237-4.237,4.237s-4.237-1.917-4.237-4.237s1.917-4.237,4.237-4.237l0,0   C137.212,16.849,139.028,18.665,139.129,20.985z M138.12,34.101l-2.926,13.318h-4.338l1.312-13.318H138.12z"/>
	<g>
		<path fill="#F9D5FF" d="M51.455,116.227c-0.908,0-1.816-0.101-2.724-0.202c-5.549-0.908-10.19-4.843-12.107-10.19    c-1.312-3.834-2.421-11.502,5.852-20.985c0.101-0.101,0.303-0.404,0.404-0.504C32.184,80.511,17.656,78.292,0,77.585l0.303-7.264    c22.801,0.908,38.036,4.137,48.024,8.273c17.959-18.261,48.024-41.365,49.437-42.475l4.439,5.751    c-0.404,0.303-29.057,22.398-46.914,40.054c6.76,3.935,9.887,8.172,11.401,11.401c2.522,5.65,1.513,11.602-2.724,16.748    C60.737,114.007,56.196,116.227,51.455,116.227z M50.042,87.271c-0.706,0.807-1.413,1.513-2.018,2.22    c-4.237,4.843-5.852,9.786-4.439,13.721c1.009,2.825,3.531,4.843,6.457,5.448c1.816,0.303,5.347,0.303,8.273-3.329    c2.522-3.027,3.027-6.053,1.715-9.08C58.618,93.022,55.188,89.995,50.042,87.271z"/>
	</g>
</g>

            </g>
        </g>
    </g>
    
</svg>